<?xml version="1.0" standalone="no"?>
<!DOCTYPE svg PUBLIC "-//W3C//DTD SVG 20010904//EN"
 "http://www.w3.org/TR/2001/REC-SVG-20010904/DTD/svg10.dtd">
<svg version="1.0" xmlns="http://www.w3.org/2000/svg"
 width="2791.000000pt" height="1440.000000pt" viewBox="0 0 2791.000000 1440.000000"
 preserveAspectRatio="xMidYMid meet">

<g transform="translate(0.000000,1440.000000) scale(0.100000,-0.100000)"
fill="#000000" stroke="none">
<path d="M1668 14367 c-39 -59 -52 -119 -51 -252 0 -147 20 -257 78 -431 73
-220 248 -599 407 -883 211 -375 711 -1183 747 -1206 5 -2 45 24 89 59 l81 64
-166 268 c-655 1063 -897 1551 -1108 2234 -26 85 -51 159 -55 163 -4 4 -14 -3
-22 -16z"/>
<path d="M7570 14353 c-254 -824 -490 -1305 -1212 -2466 -54 -87 -98 -162 -98
-166 0 -8 143 -124 158 -128 31 -10 703 1096 892 1467 97 192 243 538 283 672
51 168 62 238 62 388 -1 116 -4 143 -23 192 -32 79 -47 89 -62 41z"/>
<path d="M1235 13785 c-71 -168 -11 -459 162 -785 215 -404 456 -751 1032
-1483 l155 -198 83 88 c45 48 82 92 83 96 0 5 -26 41 -58 80 -177 218 -542
696 -704 922 -268 376 -470 727 -654 1143 -86 194 -80 185 -99 137z"/>
<path d="M7965 13708 c-274 -635 -544 -1057 -1264 -1973 -99 -126 -180 -233
-178 -236 1 -3 39 -45 84 -93 l81 -87 164 208 c481 610 725 951 920 1288 211
363 293 589 292 805 0 86 -4 114 -21 153 -12 26 -24 47 -26 47 -2 0 -25 -51
-52 -112z"/>
<path d="M2413 13458 c-14 -26 -18 -56 -18 -143 1 -120 27 -234 84 -359 53
-117 254 -476 700 -1250 91 -157 103 -182 98 -213 -8 -46 -30 -79 -70 -103
-44 -27 -75 -25 -126 10 -98 67 -223 21 -261 -96 -12 -35 -10 -101 4 -135 6
-13 -1 -15 -47 -11 -108 9 -178 -57 -185 -172 -2 -46 1 -70 16 -98 l19 -36
-43 -7 c-55 -8 -103 -41 -132 -90 -30 -53 -28 -159 5 -203 l22 -30 -39 -5
c-49 -6 -92 -36 -122 -85 -33 -53 -33 -152 1 -206 13 -21 37 -46 53 -56 l29
-18 -43 -21 c-151 -73 -139 -300 19 -356 21 -8 33 -14 26 -15 -22 0 -76 -54
-94 -95 -50 -109 11 -237 127 -266 l45 -12 -20 -21 c-72 -77 -63 -210 18 -279
34 -28 94 -49 117 -40 18 7 18 4 -6 -48 -37 -82 -17 -176 49 -232 40 -34 69
-41 130 -34 l48 6 -13 -50 c-42 -160 127 -301 253 -211 l29 20 -4 -69 c-4 -59
-1 -74 21 -111 30 -52 89 -88 144 -88 l40 0 12 98 c39 306 132 641 254 919
l35 80 -62 64 c-162 167 -236 342 -236 559 0 167 42 298 148 459 53 81 194
219 289 282 l81 55 -35 69 c-71 141 -307 567 -555 1000 -383 668 -627 1182
-748 1573 -17 56 -33 102 -36 102 -2 0 -11 -15 -21 -32z"/>
<path d="M6798 13375 c-115 -359 -354 -852 -726 -1495 -68 -118 -157 -273
-197 -345 -77 -138 -416 -788 -412 -790 135 -81 288 -216 363 -322 58 -80 120
-213 140 -299 23 -99 20 -259 -6 -359 -40 -157 -126 -300 -249 -418 l-60 -58
25 -57 c108 -243 210 -615 245 -888 13 -103 22 -114 100 -114 112 0 200 116
172 227 l-10 40 41 -23 c86 -49 183 -17 230 78 30 59 33 103 11 155 -19 45
-19 46 4 33 28 -14 97 -12 129 4 90 47 129 170 82 261 -24 47 -24 49 -6 42 50
-19 154 52 177 120 17 54 7 135 -24 182 l-26 40 32 6 c158 33 201 260 67 350
l-27 18 40 21 c23 12 54 38 71 58 73 93 26 268 -80 294 -32 8 -30 16 7 43 64
48 88 164 49 240 -26 52 -73 90 -120 97 l-39 6 18 37 c10 20 22 51 26 68 9 46
-18 132 -52 165 -31 30 -91 58 -123 58 -24 0 -24 -1 -3 41 40 80 8 195 -67
245 -34 23 -48 26 -99 22 -59 -4 -59 -4 -50 20 12 32 11 104 -2 139 -13 34
-55 80 -91 99 -15 8 -49 14 -76 14 -40 0 -57 -6 -98 -35 -38 -28 -55 -35 -78
-30 -62 11 -116 72 -116 129 0 20 61 134 194 360 362 617 545 949 612 1106 78
187 107 392 68 490 -9 22 -19 40 -23 40 -3 0 -23 -52 -43 -115z"/>
<path d="M831 13123 c-22 -79 -7 -206 39 -330 128 -345 514 -805 1260 -1505
251 -235 255 -238 270 -216 8 12 41 57 72 100 32 43 58 80 58 82 0 2 -84 81
-187 177 -536 497 -873 852 -1123 1184 -88 118 -360 522 -360 536 0 24 -20 4
-29 -28z"/>
<path d="M8388 13109 c-337 -550 -682 -951 -1364 -1589 -126 -117 -241 -225
-256 -239 l-28 -26 58 -80 c31 -45 64 -91 72 -104 15 -23 17 -22 245 191 672
624 1075 1085 1235 1413 73 148 103 263 98 375 -4 117 -16 129 -60 59z"/>
<path d="M529 12423 c-3 -116 14 -183 81 -310 69 -132 145 -230 299 -383 219
-217 439 -399 777 -640 174 -124 519 -360 527 -360 6 0 119 223 114 225 -35
21 -501 344 -628 436 -418 303 -719 573 -1024 919 -70 80 -131 147 -136 148
-5 2 -9 -14 -10 -35z"/>
<path d="M8635 12353 c-137 -162 -482 -504 -645 -639 -229 -190 -559 -432
-917 -672 -68 -45 -123 -86 -123 -91 0 -16 102 -221 110 -221 9 0 386 258 560
383 463 332 826 663 978 890 77 116 125 222 143 318 11 62 6 140 -9 138 -4 0
-47 -48 -97 -106z"/>
<path d="M4920 12115 c-14 -8 -50 -24 -80 -36 -51 -19 -73 -21 -312 -19 l-256
1 -34 -42 c-98 -123 -133 -153 -219 -183 -45 -16 -113 -47 -150 -69 -60 -37
-69 -46 -78 -83 -22 -87 -16 -115 38 -168 l50 -49 7 51 c4 35 12 53 23 56 31
10 147 9 167 -2 31 -16 59 -51 48 -61 -5 -5 -47 -21 -94 -37 l-85 -28 65 -9
c44 -7 85 -6 129 2 39 7 68 8 73 3 5 -5 8 -27 6 -48 -3 -33 -8 -42 -38 -57
-48 -25 -154 -19 -202 11 -107 69 -130 66 -108 -14 26 -91 77 -124 190 -124
30 0 82 7 115 15 33 8 77 14 98 15 42 0 47 -12 21 -61 l-15 -30 83 6 c46 3
184 10 307 16 l223 10 69 -45 c81 -54 94 -57 84 -18 -4 15 -11 149 -15 297 -5
207 -10 284 -23 330 -10 33 -24 116 -33 185 -8 69 -18 142 -22 162 -7 36 -8
36 -32 23z m-371 -266 c-71 -70 -116 -95 -151 -83 -10 3 -18 12 -18 20 0 8
-11 26 -24 39 l-23 23 121 32 c66 17 126 33 131 35 36 13 27 -4 -36 -66z
m-394 -78 c47 -15 50 -18 65 -71 l16 -55 -44 -27 -45 -26 -29 21 c-26 19 -43
22 -126 22 l-97 0 -3 30 c-3 44 65 113 122 124 44 9 64 6 141 -18z"/>
<path d="M12060 12006 l0 -74 98 -6 c283 -18 437 -61 550 -153 93 -75 146
-220 183 -493 8 -57 14 -490 19 -1330 7 -1335 6 -1309 60 -1568 130 -626 561
-1020 1324 -1213 135 -34 351 -72 502 -89 296 -32 745 -30 1034 5 1033 125
1654 643 1823 1520 39 200 47 320 47 698 l0 350 108 -6 c162 -8 251 -47 293
-129 50 -98 49 -54 49 -1871 0 -1509 -2 -1706 -16 -1774 -17 -85 -50 -156 -86
-190 -54 -50 -188 -92 -350 -108 l-68 -7 0 -64 0 -64 865 0 865 0 0 64 0 64
-82 7 c-123 10 -257 39 -322 70 -104 49 -150 148 -166 360 -10 132 -14 1255
-4 1255 4 0 33 -16 65 -35 249 -152 512 -214 849 -202 408 15 720 144 998 411
216 208 355 429 447 711 171 521 144 1176 -65 1595 -191 384 -516 633 -920
706 -129 23 -376 23 -483 0 -265 -58 -500 -188 -793 -438 -51 -43 -95 -78 -98
-78 -3 0 -6 128 -6 284 l0 285 -122 -56 c-68 -31 -196 -84 -284 -119 -166 -65
-634 -224 -660 -224 -12 0 -14 75 -14 528 0 290 5 586 10 658 33 435 187 590
629 635 l121 13 0 73 0 73 -1010 0 -1010 0 0 -74 0 -74 78 -6 c308 -25 465
-66 577 -152 81 -61 140 -187 170 -358 22 -131 23 -2477 0 -2648 -81 -611
-403 -1030 -957 -1244 -109 -42 -295 -88 -447 -111 -165 -25 -609 -25 -771 0
-798 120 -1191 559 -1260 1409 -8 89 -10 537 -8 1363 4 1209 4 1232 25 1322
69 298 199 378 688 421 l80 7 0 70 0 70 -1277 3 -1278 2 0 -74z m7735 -2001
c167 -35 302 -113 433 -250 249 -258 372 -624 372 -1102 0 -605 -182 -1055
-515 -1272 -133 -87 -248 -121 -435 -128 -217 -8 -375 31 -546 136 -95 59
-219 172 -281 255 l-43 58 0 952 0 952 43 40 c194 186 414 313 622 359 83 19
260 18 350 0z"/>
<path d="M270 11473 c2 -122 151 -326 340 -464 214 -156 607 -355 1020 -516
155 -61 463 -173 465 -170 10 16 62 244 57 248 -4 3 -114 45 -245 93 -635 232
-998 412 -1457 721 -94 63 -172 115 -175 115 -3 0 -5 -12 -5 -27z"/>
<path d="M8825 11389 c-449 -308 -831 -496 -1510 -745 -127 -46 -199 -78 -198
-86 1 -13 56 -230 59 -236 3 -5 488 178 649 244 206 85 627 300 762 390 197
131 351 301 397 437 17 50 21 108 9 106 -5 0 -80 -50 -168 -110z"/>
<path d="M22316 11173 c-209 -411 -466 -700 -844 -948 l-103 -67 3 -42 3 -41
258 -3 257 -2 0 -1253 c0 -1061 2 -1266 15 -1344 48 -294 192 -456 454 -509
115 -23 334 -15 441 16 220 63 433 223 611 459 l50 65 -50 50 -50 49 -60 -55
c-149 -139 -339 -206 -502 -179 -140 23 -202 79 -248 226 -13 44 -16 196 -18
1263 l-4 1212 401 0 400 0 0 125 0 125 -400 0 -400 0 0 500 0 500 -70 0 -69 0
-75 -147z"/>
<path d="M4575 11054 c-322 -17 -327 -18 -255 -66 19 -13 41 -35 49 -50 18
-31 24 -14 -96 -273 -86 -185 -151 -348 -288 -718 -135 -366 -201 -531 -275
-682 -157 -322 -251 -670 -290 -1067 -14 -143 2 -276 54 -468 19 -69 73 -280
121 -469 48 -190 89 -350 92 -357 2 -7 -33 -40 -79 -75 -46 -34 -85 -64 -88
-67 -5 -4 32 -38 72 -66 l23 -16 -52 -52 -52 -52 -29 27 c-35 33 -55 34 -79 3
-22 -29 -155 -129 -239 -179 -90 -54 -138 -69 -216 -65 -125 5 -108 -45 31
-93 54 -18 95 -23 221 -27 l155 -4 53 -40 c105 -81 256 -266 311 -381 39 -83
60 -166 68 -276 3 -50 10 -91 15 -91 13 0 134 189 170 265 l31 68 28 -54 c15
-30 38 -64 52 -77 25 -24 138 -75 146 -66 3 2 -8 17 -23 33 -33 35 -57 110
-49 154 3 18 25 73 49 122 67 138 76 183 81 403 l5 192 88 0 88 0 6 -27 c18
-93 31 -299 31 -498 0 -195 -3 -239 -18 -290 -27 -88 -95 -149 -282 -254 -324
-181 -403 -241 -454 -343 -26 -52 -31 -73 -31 -135 0 -47 4 -73 10 -71 6 2 26
39 45 82 41 95 76 150 110 172 56 37 246 35 504 -6 131 -21 160 -31 129 -43
-20 -7 -396 -277 -552 -395 -298 -226 -497 -407 -536 -487 -24 -49 -27 -149
-6 -199 7 -18 31 -47 52 -65 45 -36 200 -118 209 -110 3 3 -10 57 -30 118 -47
151 -46 173 16 301 133 277 317 470 450 470 64 0 135 -45 200 -128 55 -68 109
-158 109 -180 0 -5 -373 -450 -828 -988 l-828 -979 35 -7 c20 -4 257 -8 526
-9 270 -1 653 -5 851 -8 l362 -6 -109 -245 c-60 -134 -109 -252 -109 -260 0
-9 54 -138 121 -286 66 -148 127 -285 135 -304 l15 -35 149 332 148 333 -103
232 -104 233 342 6 c188 3 572 7 852 8 281 1 527 5 547 9 l37 7 -825 975
c-635 751 -824 980 -824 1001 0 63 159 256 236 285 153 58 353 -118 517 -455
62 -128 63 -147 14 -311 -19 -63 -33 -117 -31 -119 2 -2 42 16 90 40 114 57
168 110 182 175 15 71 2 154 -33 204 -78 113 -406 394 -815 700 -113 84 -206
156 -208 160 -1 4 46 15 105 25 140 22 384 31 440 16 55 -15 101 -69 149 -177
20 -46 41 -84 46 -84 4 0 8 35 8 78 -1 166 -75 245 -410 432 -262 147 -317
190 -344 268 -41 115 -45 371 -11 687 8 77 15 143 15 148 0 4 40 7 89 7 l89 0
4 -197 c6 -220 16 -271 86 -408 19 -38 38 -85 42 -102 11 -47 -6 -112 -42
-156 -16 -21 -28 -40 -26 -42 7 -8 121 45 145 67 41 37 81 133 89 210 8 81 19
95 27 33 13 -95 98 -269 195 -400 l37 -50 7 105 c8 134 41 236 112 350 30 47
73 123 96 170 52 104 82 144 119 159 17 8 105 13 227 15 153 2 211 6 250 19
67 22 119 58 119 82 0 18 -6 20 -75 17 -64 -3 -84 0 -135 22 -65 29 -217 129
-307 202 l-58 47 -50 -47 -50 -47 -75 78 -74 78 37 32 c20 17 35 33 32 35 -3
3 -42 33 -88 67 -56 42 -82 68 -78 78 3 8 64 217 135 466 157 546 170 612 153
811 -21 250 -80 535 -159 766 -35 105 -64 171 -186 435 -35 77 -115 266 -177
420 -62 154 -142 343 -177 420 -114 246 -107 218 -107 415 -1 96 2 207 6 246
l8 71 -83 57 c-45 31 -86 55 -92 55 -5 -1 -122 -8 -260 -15z m821 -7595 c417
-468 765 -859 773 -870 13 -19 -11 -19 -1534 -19 -994 0 -1545 3 -1543 10 4
12 1531 1729 1539 1729 3 1 347 -382 765 -850z m-697 -1333 c45 -99 81 -185
81 -192 0 -9 -166 -393 -174 -401 -2 -2 -80 172 -159 354 -8 19 6 58 79 222
49 110 90 199 91 198 0 -1 38 -83 82 -181z"/>
<path d="M4026 3412 l-599 -677 1198 -3 c659 -1 1200 0 1202 2 5 4 -1185 1350
-1196 1353 -3 1 -276 -303 -605 -675z m853 233 l239 -270 -51 -3 c-29 -2 -53
0 -54 5 -2 4 -26 50 -54 101 l-50 92 -274 0 -273 0 -51 -95 -52 -95 -55 0 -56
0 44 49 c342 388 434 490 440 488 4 -1 115 -123 247 -272z m54 -215 l43 -95
91 -3 91 -3 69 -77 c38 -42 73 -83 77 -89 6 -10 -28 -13 -153 -13 l-161 0 0
75 0 75 -350 0 -350 0 0 -75 0 -75 -172 0 c-162 0 -170 1 -156 18 8 9 43 50
78 90 l63 72 94 0 94 0 18 43 c11 23 31 68 45 100 l26 57 255 -2 256 -3 42
-95z m599 -522 l40 -48 -942 0 -942 0 33 38 c18 20 58 66 88 100 l56 64 5 -59
5 -58 753 -3 752 -2 0 67 1 68 55 -60 c31 -33 74 -81 96 -107z"/>
<path d="M4576 2007 c-20 -43 -36 -84 -36 -91 0 -18 61 -156 69 -156 3 0 22
38 42 84 l37 83 -38 79 -38 79 -36 -78z"/>
<path d="M120 10617 c0 -8 14 -41 30 -75 75 -150 283 -293 563 -386 174 -58
499 -134 752 -176 254 -41 583 -86 589 -79 2 2 6 61 10 130 l6 126 -62 7 c-35
4 -160 21 -278 37 -589 83 -995 185 -1444 365 -87 35 -160 64 -162 64 -2 0 -4
-6 -4 -13z"/>
<path d="M9040 10588 c-488 -203 -976 -324 -1656 -409 l-181 -22 5 -126 c2
-69 6 -128 8 -130 10 -11 577 72 814 119 458 92 731 190 922 332 106 78 197
199 198 261 0 22 2 22 -110 -25z"/>
<path d="M25179 10545 c-379 -61 -664 -212 -928 -491 -285 -301 -439 -680
-471 -1159 -39 -579 128 -1074 480 -1425 123 -124 221 -197 350 -261 207 -104
442 -147 697 -128 529 39 947 363 1324 1023 l68 119 -54 39 c-29 21 -57 38
-62 38 -4 0 -14 -10 -22 -22 -41 -68 -166 -224 -241 -302 -235 -245 -443 -341
-760 -353 -310 -11 -540 72 -749 271 -257 246 -390 561 -421 1001 -35 491 99
925 371 1197 161 160 348 238 573 238 222 0 351 -68 425 -223 17 -36 49 -135
70 -219 44 -177 83 -261 143 -312 59 -51 126 -69 246 -64 114 4 184 31 247 94
65 67 80 112 80 244 0 142 -23 217 -98 322 -124 172 -341 297 -624 359 -128
28 -509 36 -644 14z"/>
<path d="M1905 9699 c-329 -45 -539 -61 -865 -66 -342 -5 -552 6 -835 46 -72
10 -132 17 -134 15 -2 -2 9 -24 23 -49 45 -76 175 -159 319 -204 165 -51 226
-56 637 -56 243 0 431 5 510 13 153 16 544 63 547 66 2 1 -4 38 -12 82 -7 43
-16 100 -20 127 -5 36 -10 47 -23 46 -9 -1 -75 -10 -147 -20z"/>
<path d="M7187 9605 c-10 -64 -20 -122 -23 -129 -4 -9 10 -15 48 -20 507 -62
685 -76 1025 -76 194 0 318 5 396 15 257 34 453 120 538 237 47 66 45 67 -103
47 -302 -41 -497 -51 -838 -46 -183 3 -393 12 -480 21 -160 17 -462 53 -515
62 l-30 5 -18 -116z"/>
<path d="M1975 9244 c-691 -261 -1128 -372 -1697 -430 -93 -10 -168 -20 -168
-24 0 -14 79 -79 120 -100 60 -31 173 -57 276 -65 227 -18 653 68 1139 229
226 75 574 203 587 215 6 5 -71 223 -83 235 -2 2 -80 -25 -174 -60z"/>
<path d="M7114 9294 c-3 -11 -22 -64 -43 -119 -21 -55 -36 -103 -32 -107 7 -7
359 -137 549 -202 259 -89 572 -171 822 -215 268 -48 488 -33 641 44 34 17
109 83 109 96 0 4 -35 10 -77 14 -507 44 -947 141 -1462 321 -152 54 -412 150
-484 179 -13 6 -20 2 -23 -11z"/>
<path d="M2145 8859 c-526 -338 -949 -567 -1323 -715 -157 -63 -510 -183 -580
-199 l-34 -7 22 -23 c44 -46 115 -68 240 -73 199 -7 353 33 686 181 370 165
613 298 1082 594 100 64 182 120 182 125 0 5 -25 50 -55 100 -30 50 -55 95
-55 100 0 19 -32 3 -165 -83z"/>
<path d="M6927 8873 c-26 -43 -54 -90 -64 -105 -21 -34 -44 -16 237 -191 441
-276 712 -423 1050 -569 308 -133 460 -172 649 -167 112 4 122 6 186 39 38 19
70 40 72 45 1 6 -72 34 -165 63 -611 196 -988 380 -1705 834 -104 66 -195 122
-202 124 -8 3 -30 -24 -58 -73z"/>
<path d="M2486 8632 c-12 -21 -592 -576 -744 -715 -408 -369 -734 -605 -1168
-846 -106 -59 -106 -59 -82 -75 44 -29 131 -40 218 -28 207 30 400 131 753
395 270 204 547 450 974 871 l222 218 -58 67 c-33 36 -70 79 -83 95 -17 20
-27 25 -32 18z"/>
<path d="M6715 8569 c-106 -127 -100 -117 -79 -141 37 -41 542 -526 674 -647
336 -308 713 -592 935 -706 199 -101 392 -136 508 -92 26 10 47 22 47 25 0 4
-33 25 -73 46 -117 64 -362 212 -474 287 -329 221 -657 500 -1148 979 -110
107 -229 223 -265 257 l-66 63 -59 -71z"/>
<path d="M6435 8280 c-49 -43 -91 -82 -92 -87 -4 -10 163 -233 403 -538 390
-496 548 -679 799 -923 292 -284 460 -409 649 -484 71 -28 93 -32 178 -32 67
-1 101 3 110 12 11 11 10 15 -5 23 -29 17 -306 237 -387 308 -338 295 -588
567 -1009 1091 -146 182 -546 691 -555 707 -1 0 -41 -34 -91 -77z"/>
<path d="M2590 8153 c-785 -1010 -1147 -1405 -1643 -1786 -66 -50 -132 -102
-146 -114 l-26 -21 28 -11 c102 -39 296 15 487 137 190 120 550 464 825 787
180 212 662 822 778 986 l46 66 -27 20 c-15 11 -55 46 -90 77 -34 31 -66 56
-71 56 -4 0 -77 -89 -161 -197z"/>
<path d="M2869 7868 c-705 -1215 -1073 -1748 -1536 -2229 -62 -64 -113 -119
-113 -123 0 -19 77 -1 146 34 125 63 245 160 444 359 264 265 518 582 736 921
197 305 695 1154 683 1164 -3 3 -135 89 -196 128 -7 6 -62 -79 -164 -254z"/>
<path d="M6170 8066 c-41 -28 -86 -58 -99 -66 l-23 -16 31 -61 c80 -160 522
-902 689 -1158 335 -514 837 -1058 1120 -1212 71 -39 155 -64 169 -50 3 4 -52
66 -122 139 -467 485 -878 1086 -1604 2351 -40 70 -76 126 -80 126 -3 -1 -40
-24 -81 -53z"/>
<path d="M5947 7863 c-3 -4 -8 -37 -12 -73 -4 -36 -13 -101 -21 -145 l-14 -79
136 -281 c372 -770 596 -1159 958 -1669 268 -376 447 -586 556 -649 42 -24
130 -47 130 -34 0 4 -50 66 -111 139 -458 549 -787 1102 -1381 2321 -126 260
-231 473 -233 475 -2 2 -5 0 -8 -5z"/>
<path d="M3186 7652 c-187 -390 -575 -1157 -692 -1367 -284 -511 -533 -882
-832 -1240 l-101 -120 34 -3 c42 -4 82 16 161 80 108 87 241 249 479 583 369
519 489 724 865 1480 l239 480 -21 140 c-11 77 -23 148 -27 157 -4 12 -38 -49
-105 -190z"/>
<path d="M10580 6055 l0 -145 3315 0 3315 0 0 145 0 145 -3315 0 -3315 0 0
-145z"/>
<path d="M19300 6055 l0 -145 4133 2 4132 3 3 143 3 142 -4136 0 -4135 0 0
-145z"/>
<path d="M3188 6046 c-78 -21 -94 -38 -153 -161 l-55 -115 -38 0 c-52 0 -145
-25 -219 -59 -62 -30 -88 -57 -77 -85 3 -8 86 -44 190 -82 101 -38 184 -72
184 -76 0 -5 -162 -274 -361 -598 l-361 -590 -83 0 -84 0 -191 -125 -191 -125
-79 0 c-103 0 -167 -14 -224 -51 -40 -25 -53 -42 -96 -129 -27 -56 -52 -121
-56 -146 -7 -48 5 -128 28 -184 l14 -33 89 114 c166 211 192 231 292 227 32
-2 68 1 80 5 48 17 56 -81 12 -137 -11 -14 -51 -42 -90 -62 -81 -43 -106 -73
-122 -149 -25 -120 41 -357 106 -379 38 -14 77 2 104 43 21 31 23 46 23 153 0
83 5 129 15 155 27 64 183 197 269 229 18 7 19 3 10 -92 -5 -54 -9 -136 -9
-181 0 -73 3 -84 25 -108 60 -64 223 -120 325 -112 74 5 110 23 163 79 32 33
39 46 31 60 -13 25 -62 48 -142 69 -88 22 -130 52 -164 114 -23 42 -28 65 -31
141 l-4 92 40 40 c47 47 198 125 275 142 76 17 123 6 168 -39 28 -28 39 -48
44 -84 16 -103 126 -155 179 -84 19 25 21 42 21 150 0 194 -45 294 -154 350
-45 22 -67 27 -130 27 -84 0 -171 -18 -244 -49 -29 -12 -45 -16 -41 -8 4 6
138 179 298 382 159 204 291 372 292 374 2 2 23 -15 46 -38 73 -74 149 -98
213 -69 l25 11 0 137 c0 161 6 202 28 198 9 -2 47 -41 85 -88 38 -47 72 -86
76 -87 3 -2 7 36 7 85 2 107 23 201 71 306 31 68 37 92 36 146 -1 126 -73 265
-231 448 l-54 62 -66 -1 c-37 0 -88 -6 -114 -13z"/>
<path d="M5866 5999 c-70 -78 -157 -207 -190 -280 -52 -119 -55 -211 -10 -300
52 -103 88 -278 77 -374 l-4 -40 33 36 c18 20 57 64 87 98 40 46 56 60 65 51
7 -7 12 -64 12 -158 1 -81 2 -154 3 -163 1 -20 43 -39 87 -39 46 0 89 23 145
77 l47 45 54 -69 c131 -164 534 -679 541 -689 3 -6 -31 2 -76 19 -117 42 -251
49 -325 17 -64 -28 -114 -83 -144 -159 -18 -47 -22 -77 -22 -188 -1 -118 1
-134 20 -160 15 -20 31 -29 58 -31 32 -3 43 2 77 36 23 23 39 49 39 63 0 12 9
42 21 65 22 47 82 84 135 84 100 0 325 -114 360 -182 8 -15 14 -53 14 -86 0
-131 -57 -227 -153 -257 -138 -42 -158 -50 -178 -71 l-21 -23 38 -45 c84 -101
223 -113 396 -34 76 35 114 71 123 115 3 20 1 101 -6 179 -7 79 -10 146 -7
149 20 20 205 -118 259 -193 l34 -47 1 -125 c1 -129 6 -153 47 -197 29 -33 76
-30 110 5 33 34 54 92 73 206 28 162 -2 242 -110 296 -89 45 -118 77 -123 137
-6 60 10 79 52 63 16 -6 47 -8 70 -4 31 4 55 1 87 -14 46 -20 81 -57 212 -225
l76 -99 22 49 c16 35 21 68 22 123 0 70 -3 82 -52 183 -46 94 -58 112 -98 137
-57 36 -121 50 -225 50 -63 0 -87 4 -107 19 -15 10 -99 65 -187 122 l-160 104
-89 5 -89 5 -358 585 c-197 322 -359 590 -359 595 0 6 78 39 173 74 188 70
216 86 198 119 -23 42 -205 112 -293 112 l-38 0 -58 117 c-53 110 -60 119
-104 141 -36 19 -69 26 -136 30 l-88 5 -58 -64z"/>
<path d="M23841 4673 c-11 -10 -75 -88 -141 -173 -112 -145 -118 -155 -95
-158 19 -3 58 22 162 104 76 59 143 115 150 123 21 28 16 88 -9 105 -29 20
-41 20 -67 -1z"/>
<path d="M18655 4662 c-16 -9 -70 -30 -120 -48 -58 -20 -91 -37 -93 -48 -3
-12 4 -16 28 -16 20 0 40 -9 55 -25 25 -24 25 -26 25 -211 l0 -187 -22 21
c-37 34 -109 62 -164 62 -79 0 -142 -26 -200 -85 -99 -99 -144 -232 -144 -424
0 -190 38 -302 131 -385 101 -91 247 -88 353 5 l45 40 3 -59 3 -59 110 47
c120 52 141 74 81 86 -20 3 -40 11 -44 18 -4 6 -9 297 -12 648 l-5 636 -30
-16z m-204 -535 c18 -12 47 -42 64 -65 l30 -44 3 -293 3 -294 -42 -30 c-100
-73 -208 -45 -277 69 -49 83 -64 141 -69 285 -6 148 8 228 55 303 54 87 160
118 233 69z"/>
<path d="M21578 4659 c-20 -10 -77 -32 -125 -49 -95 -31 -123 -60 -60 -60 19
0 45 -9 58 -19 23 -19 24 -23 27 -211 l4 -191 -52 35 c-59 41 -100 51 -175 43
-70 -7 -120 -34 -179 -97 -106 -113 -156 -319 -127 -520 31 -210 126 -325 276
-338 79 -6 133 12 205 69 l50 39 0 -59 0 -58 113 48 c120 52 141 74 83 84 -19
4 -40 13 -46 19 -6 9 -11 232 -12 648 l-3 636 -37 -19z m-193 -537 c39 -31 73
-80 85 -122 5 -19 10 -155 10 -303 l0 -267 -47 -30 c-86 -54 -159 -52 -224 7
-71 64 -111 171 -124 328 -12 140 29 308 89 364 60 56 155 67 211 23z"/>
<path d="M12939 4641 c-25 -25 -29 -37 -29 -81 0 -44 4 -56 29 -81 18 -17 40
-29 56 -29 16 0 38 12 56 29 25 25 29 37 29 81 0 44 -4 56 -29 81 -18 17 -40
29 -56 29 -16 0 -38 -12 -56 -29z"/>
<path d="M16077 4659 c-43 -25 -60 -106 -32 -159 38 -74 129 -65 155 16 32 95
-47 187 -123 143z"/>
<path d="M17000 4653 c-19 -9 -71 -29 -115 -44 -88 -30 -114 -59 -53 -59 48 0
69 -19 79 -71 9 -49 12 -349 3 -349 -3 0 -22 14 -43 30 -70 56 -170 66 -258
26 -143 -67 -233 -254 -233 -486 0 -275 119 -450 304 -450 72 0 127 23 184 74
21 20 42 36 46 36 3 0 6 -25 6 -55 0 -30 3 -55 7 -55 5 0 48 17 98 39 49 21
98 41 108 44 30 11 19 34 -20 42 -21 4 -41 12 -45 18 -4 7 -8 297 -8 645 0
499 -3 632 -12 631 -7 0 -29 -8 -48 -16z m-202 -517 c34 -18 75 -61 98 -106
17 -31 19 -65 22 -308 l4 -274 -24 -25 c-30 -33 -94 -63 -137 -63 -149 -1
-254 210 -238 475 7 111 28 181 70 237 54 71 140 98 205 64z"/>
<path d="M25088 4643 c-47 -50 -45 -118 4 -170 28 -30 70 -29 105 1 25 22 28
31 28 86 0 55 -3 64 -28 86 -38 32 -77 31 -109 -3z"/>
<path d="M10640 4601 c0 -20 18 -31 51 -31 33 0 74 -27 89 -57 11 -22 16 -121
21 -463 6 -399 8 -442 28 -515 37 -141 126 -238 258 -281 44 -15 86 -19 178
-19 150 1 208 21 293 100 69 64 105 126 134 232 20 72 22 111 27 498 3 231 10
427 15 435 22 36 52 61 88 70 28 8 38 16 38 30 0 19 -8 20 -191 20 l-190 0 3
-22 c2 -17 12 -24 40 -29 20 -3 48 -13 61 -22 49 -32 52 -61 52 -487 0 -343
-2 -403 -17 -457 -47 -168 -139 -258 -285 -278 -117 -15 -233 38 -286 132 -58
105 -60 122 -64 563 -6 497 -1 526 82 545 59 13 65 17 65 36 0 18 -10 19 -245
19 -234 0 -245 -1 -245 -19z"/>
<path d="M19252 4598 c2 -18 11 -24 43 -29 56 -7 81 -24 94 -60 16 -46 14
-1069 -2 -1124 -14 -44 -59 -75 -109 -75 -21 0 -28 -5 -28 -20 0 -19 7 -20
245 -20 233 0 245 1 245 19 0 15 -10 20 -48 25 -103 13 -112 41 -112 345 l0
221 63 0 c238 1 360 57 428 196 28 56 33 78 37 162 7 158 -34 259 -134 322
-80 51 -151 60 -454 60 l-271 0 3 -22z m521 -69 c21 -6 56 -26 77 -45 56 -51
75 -108 75 -229 0 -90 -3 -106 -28 -158 -46 -93 -124 -137 -242 -137 -48 0
-64 4 -69 16 -3 9 -6 129 -6 268 0 302 -2 296 93 296 34 0 79 -5 100 -11z"/>
<path d="M8387 4382 c-15 -32 -31 -82 -38 -110 -31 -146 78 -272 237 -272 84
0 144 32 258 140 99 93 127 107 195 95 120 -20 168 -132 92 -214 -26 -27 -35
-31 -85 -31 l-56 0 0 -34 0 -33 83 -15 c45 -8 86 -12 90 -8 22 19 67 178 67
236 0 145 -106 246 -260 247 -86 1 -126 -21 -248 -132 -54 -48 -107 -93 -119
-99 -28 -15 -88 -15 -116 -1 -82 42 -102 115 -47 171 27 26 36 29 82 27 52 -3
52 -3 59 30 8 37 9 36 -75 51 -91 16 -91 16 -119 -48z"/>
<path d="M828 4383 c-3 -32 -7 -38 -33 -45 -57 -14 -678 -89 -695 -83 -10 3
-23 19 -29 35 -7 23 -16 30 -35 30 -31 0 -31 6 -9 -177 l17 -143 28 0 c25 0
28 4 28 33 0 41 8 52 45 61 32 8 299 45 302 42 1 -1 6 -34 11 -74 9 -78 3 -98
-33 -104 -21 -4 -30 -26 -17 -45 6 -10 28 -10 100 -1 92 11 93 12 90 37 -3 23
-7 26 -35 23 -37 -2 -37 -1 -52 106 -5 44 -5 65 3 67 6 2 74 11 151 20 77 9
152 18 166 21 26 5 26 5 38 -97 14 -114 12 -119 -46 -128 -31 -5 -38 -11 -41
-31 -4 -47 8 -52 88 -41 39 5 75 12 78 15 5 5 -39 393 -55 484 -4 27 -9 32
-34 32 -25 0 -28 -4 -31 -37z"/>
<path d="M15507 4205 c-116 -30 -187 -168 -157 -308 19 -92 53 -129 249 -271
45 -33 90 -73 101 -91 31 -50 35 -105 12 -158 -24 -54 -61 -77 -125 -77 -85 0
-154 79 -193 218 -10 36 -23 62 -31 62 -10 0 -13 -33 -13 -159 0 -161 8 -195
35 -158 15 21 46 21 111 3 132 -38 193 -27 265 45 55 54 79 119 79 209 0 122
-49 195 -194 292 -154 103 -186 142 -186 227 0 42 5 56 29 83 26 29 35 33 83
33 87 0 142 -55 173 -175 7 -30 17 -46 30 -49 16 -3 17 2 12 50 -4 30 -7 93
-7 142 0 91 -6 102 -41 71 -16 -14 -22 -15 -66 -1 -73 23 -113 26 -166 12z"/>
<path d="M23657 4210 c-142 -24 -257 -144 -302 -317 -21 -78 -21 -260 0 -338
35 -135 110 -235 213 -283 71 -33 178 -37 260 -8 65 22 148 96 185 164 84 155
91 438 13 590 -73 143 -216 217 -369 192z m131 -87 c43 -35 95 -131 119 -223
25 -93 25 -362 0 -442 -35 -114 -123 -173 -219 -147 -56 14 -94 53 -133 132
-51 105 -68 210 -63 375 5 150 24 223 76 283 56 67 152 77 220 22z"/>
<path d="M25668 4207 c-191 -54 -309 -303 -277 -582 23 -207 121 -348 262
-377 85 -18 153 6 227 81 83 84 165 251 122 251 -4 0 -27 -29 -50 -65 -55 -84
-106 -115 -186 -115 -65 0 -97 14 -143 62 -143 149 -133 549 17 660 34 25 93
33 129 18 32 -13 54 -55 66 -127 14 -88 78 -121 132 -67 23 23 25 31 21 85 -3
46 -11 67 -34 96 -58 74 -184 108 -286 80z"/>
<path d="M12095 4175 c-38 -19 -91 -39 -117 -46 -63 -17 -66 -44 -7 -52 73
-10 73 -7 77 -281 5 -293 -3 -427 -27 -457 -9 -11 -32 -24 -51 -28 -21 -4 -36
-14 -38 -24 -3 -16 12 -17 183 -17 171 0 186 1 183 17 -2 10 -17 20 -37 24
-67 14 -66 5 -69 361 l-3 321 32 33 c62 64 162 81 212 37 47 -42 51 -71 55
-367 2 -153 1 -293 -2 -311 -9 -47 -28 -67 -72 -74 -26 -4 -40 -12 -42 -24 -3
-16 11 -17 177 -17 174 0 181 1 181 20 0 14 -7 20 -24 20 -13 0 -34 9 -47 19
l-24 19 -6 339 c-6 358 -13 407 -59 465 -69 89 -212 72 -330 -38 l-50 -47 0
72 c0 51 -4 71 -12 70 -7 0 -44 -16 -83 -34z"/>
<path d="M12970 4179 c-36 -15 -86 -34 -112 -40 -60 -16 -66 -43 -12 -52 67
-11 64 6 64 -377 0 -389 1 -384 -70 -399 -21 -4 -36 -14 -38 -24 -3 -16 12
-17 177 -17 174 0 181 1 181 20 0 15 -7 20 -25 20 -14 0 -37 11 -50 25 l-25
24 0 426 c0 334 -3 425 -12 424 -7 -1 -42 -14 -78 -30z"/>
<path d="M14217 4196 c-115 -41 -203 -161 -237 -321 -19 -86 -17 -266 4 -344
71 -274 304 -374 490 -210 61 53 165 240 153 273 -10 26 -22 19 -47 -26 -172
-305 -489 -166 -490 215 l0 67 255 0 255 0 -6 33 c-25 146 -51 205 -118 264
-25 22 -62 45 -84 51 -52 16 -128 14 -175 -2z m119 -65 c49 -22 80 -69 94
-140 16 -84 21 -81 -170 -81 l-169 0 6 38 c7 45 38 119 61 146 20 23 89 56
117 56 11 0 38 -9 61 -19z"/>
<path d="M14865 4169 c-150 -60 -147 -58 -143 -77 2 -12 16 -19 46 -23 23 -3
48 -11 55 -18 16 -16 23 -619 7 -673 -11 -39 -49 -68 -90 -68 -13 0 -20 -7
-20 -20 0 -19 7 -20 201 -20 180 0 200 2 197 16 -2 11 -21 21 -51 29 -27 7
-53 17 -58 22 -22 22 -29 98 -29 348 l0 260 36 53 c49 73 73 83 122 49 72 -50
127 -24 127 60 0 38 -5 49 -33 74 -18 16 -43 29 -55 29 -37 0 -108 -54 -152
-115 l-40 -56 -3 86 c-1 47 -6 85 -10 84 -4 0 -52 -18 -107 -40z"/>
<path d="M16130 4193 c-19 -9 -71 -29 -115 -44 -95 -32 -107 -51 -38 -65 38
-7 49 -14 54 -34 4 -14 7 -167 7 -340 1 -368 -1 -380 -65 -394 -31 -7 -43 -15
-43 -28 0 -17 13 -18 181 -18 165 0 180 1 177 17 -2 10 -16 20 -34 24 -17 3
-36 9 -42 13 -27 16 -32 93 -32 484 0 221 -3 402 -7 401 -5 0 -24 -8 -43 -16z"/>
<path d="M17460 4196 c-109 -29 -171 -95 -178 -186 -4 -53 -2 -61 21 -84 32
-32 58 -33 93 -3 25 21 26 29 25 94 -1 67 1 73 29 102 50 49 129 53 177 9 28
-27 45 -105 41 -198 l-3 -72 -81 -37 c-253 -114 -343 -215 -332 -374 8 -121
66 -188 168 -195 68 -5 135 21 210 81 28 23 46 32 48 24 11 -42 37 -86 57 -97
14 -8 39 -10 61 -7 63 11 145 93 131 131 -6 16 -9 16 -33 -3 -29 -23 -42 -25
-64 -11 -13 8 -16 60 -21 327 -7 363 -10 384 -83 451 -63 58 -163 76 -266 48z
m210 -570 c0 -163 -1 -175 -22 -206 -48 -70 -151 -93 -202 -45 -56 52 -72 153
-37 230 23 51 91 112 178 158 38 20 71 37 76 37 4 0 7 -78 7 -174z"/>
<path d="M20404 4194 c-90 -32 -167 -128 -212 -262 -22 -67 -26 -95 -26 -217
-1 -152 12 -216 62 -308 52 -96 158 -167 252 -167 43 0 119 26 162 56 49 34
118 130 158 218 34 75 35 82 16 89 -9 4 -26 -15 -50 -53 -86 -139 -196 -183
-312 -125 -59 29 -106 89 -135 172 -22 60 -44 215 -35 239 4 12 47 14 256 14
l250 0 0 33 c0 76 -47 195 -98 251 -64 68 -190 95 -288 60z m113 -55 c65 -24
112 -100 113 -181 l0 -48 -171 0 -171 0 7 43 c23 138 124 223 222 186z"/>
<path d="M22035 4201 c-146 -38 -231 -162 -180 -261 27 -52 85 -49 121 5 12
19 14 37 9 74 -5 39 -3 57 11 80 45 76 172 80 211 7 23 -43 32 -256 11 -256
-8 0 -68 -27 -133 -59 -204 -101 -269 -178 -269 -326 -1 -70 3 -86 27 -128 67
-114 215 -115 353 -1 l42 34 7 -30 c19 -88 97 -115 172 -61 57 41 88 87 73
106 -11 13 -16 12 -37 -5 -33 -26 -48 -25 -67 2 -14 19 -16 65 -16 305 0 161
-5 303 -11 332 -15 73 -58 134 -112 160 -49 24 -161 36 -212 22z m185 -772
c-6 -11 -29 -33 -52 -49 -135 -98 -271 60 -194 226 28 59 84 109 182 160 l69
36 3 -176 c1 -112 -1 -184 -8 -197z"/>
<path d="M22824 4200 c-80 -18 -158 -98 -191 -193 -12 -37 -18 -82 -18 -152 0
-115 20 -174 82 -236 l35 -37 -51 -66 c-77 -101 -88 -172 -35 -235 l24 -29
-49 -65 c-59 -79 -75 -122 -69 -194 7 -80 60 -139 147 -163 46 -13 193 -12
250 1 250 57 398 344 253 490 -43 42 -95 54 -272 64 -137 8 -166 13 -185 31
-21 22 -19 71 6 111 19 30 25 33 51 28 50 -11 135 -7 172 9 57 24 121 90 152
159 24 54 28 74 28 157 0 67 -5 106 -16 133 l-17 37 65 0 64 0 0 45 0 45 -91
0 c-77 0 -96 3 -121 21 -58 41 -142 57 -214 39z m105 -75 c41 -35 70 -118 84
-242 20 -180 -17 -273 -109 -273 -93 0 -148 117 -149 320 0 96 3 122 20 155
34 67 100 84 154 40z m128 -916 c74 -15 117 -46 121 -88 2 -18 -2 -46 -9 -63
-18 -44 -95 -106 -152 -123 -65 -19 -179 -19 -243 0 -121 36 -161 158 -85 261
l28 39 144 -7 c79 -5 167 -13 196 -19z"/>
<path d="M24450 4201 c-91 -29 -160 -102 -190 -199 -44 -141 -19 -300 60 -383
l38 -40 -39 -47 c-85 -102 -102 -185 -50 -244 l29 -33 -49 -65 c-82 -108 -96
-199 -44 -281 37 -58 100 -83 221 -87 152 -6 251 27 346 116 70 66 100 129
105 222 4 65 1 81 -19 120 -36 69 -82 87 -253 100 -219 17 -223 18 -242 46
-13 21 -14 31 -5 63 17 56 38 70 92 62 145 -21 271 63 315 212 19 63 19 189 0
242 -8 22 -15 41 -15 42 0 1 28 3 63 5 l62 3 3 43 3 42 -100 0 c-57 0 -103 4
-106 10 -23 37 -167 70 -225 51z m90 -61 c55 -30 100 -172 100 -321 0 -113 -7
-144 -40 -179 -32 -35 -90 -41 -128 -14 -31 22 -68 99 -81 169 -14 77 -14 218
1 267 21 70 93 108 148 78z m135 -931 c109 -20 144 -53 131 -124 -10 -52 -78
-117 -152 -145 -79 -29 -226 -26 -291 8 -99 52 -119 169 -44 255 l29 32 133
-7 c74 -4 161 -12 194 -19z"/>
<path d="M25120 4179 c-36 -15 -86 -34 -112 -40 -63 -17 -66 -44 -8 -54 24 -4
44 -14 51 -26 6 -12 9 -142 7 -365 l-3 -346 -24 -19 c-13 -10 -36 -19 -52 -19
-22 0 -29 -5 -29 -20 0 -19 7 -20 180 -20 173 0 180 1 180 20 0 15 -7 20 -29
20 -20 0 -36 9 -50 26 -21 26 -21 37 -21 450 0 333 -3 424 -12 423 -7 -1 -42
-14 -78 -30z"/>
<path d="M26302 4193 c-61 -18 -138 -81 -158 -130 -40 -94 15 -186 90 -152 33
15 46 52 43 121 -2 48 2 60 22 82 36 38 91 52 142 37 60 -18 78 -65 79 -198 0
-79 -3 -103 -13 -103 -8 0 -68 -27 -135 -61 -183 -91 -254 -169 -269 -297 -6
-55 16 -144 46 -179 76 -90 211 -81 337 23 l42 34 7 -30 c4 -17 18 -44 32 -60
46 -56 127 -34 196 53 39 48 27 66 -27 41 -34 -17 -37 -17 -54 -1 -15 16 -18
52 -22 335 l-5 317 -27 57 c-51 110 -180 154 -326 111z m200 -773 c-33 -44
-81 -70 -129 -70 -110 0 -166 147 -103 270 24 48 86 99 176 146 l69 36 3 -178
c2 -161 1 -181 -16 -204z"/>
<path d="M13160 4172 c0 -10 11 -24 23 -29 13 -6 32 -28 42 -50 10 -21 82
-220 160 -443 89 -254 147 -406 156 -408 10 -2 52 111 153 415 76 230 145 431
153 446 8 15 25 32 39 37 16 7 24 16 22 28 -3 15 -18 17 -121 20 -112 3 -117
2 -117 -18 0 -15 8 -22 30 -27 38 -7 61 -38 54 -72 -5 -23 -156 -504 -170
-541 -8 -21 -174 463 -181 527 -7 63 3 79 58 88 30 5 39 11 37 23 -3 15 -24
17 -171 20 -157 2 -167 1 -167 -16z"/>
<path d="M27170 4171 c0 -12 9 -21 25 -25 13 -3 30 -16 36 -28 7 -12 77 -211
156 -442 l144 -419 -17 -51 c-27 -83 -81 -189 -109 -216 -25 -24 -26 -24 -73
-7 -26 9 -57 17 -69 17 -33 0 -63 -45 -63 -95 0 -36 5 -48 31 -69 56 -47 136
-32 198 39 68 78 92 143 267 733 73 249 140 468 148 487 8 19 27 40 41 47 15
7 24 18 23 27 -3 13 -23 16 -121 19 -110 2 -117 1 -117 -17 0 -12 9 -21 27
-26 41 -10 53 -24 53 -59 0 -29 -134 -536 -149 -563 -4 -7 -46 107 -95 255
-69 211 -87 276 -84 312 3 44 4 45 46 54 30 7 42 14 40 25 -3 14 -29 16 -171
19 -159 2 -167 2 -167 -17z"/>
<path d="M8325 3978 c-23 -61 -53 -174 -47 -179 17 -16 52 -20 52 -7 0 8 6 23
14 33 13 18 15 18 52 -6 21 -13 130 -87 241 -165 l202 -142 -47 -5 c-26 -4
-159 -9 -296 -13 l-249 -7 6 36 c5 33 3 38 -19 43 -14 4 -27 4 -30 1 -8 -8
-88 -287 -83 -291 2 -2 14 -7 26 -10 18 -6 25 -1 38 23 14 28 20 31 63 31 26
1 222 9 435 19 397 18 406 20 407 57 0 6 -127 100 -282 209 -444 312 -428 300
-428 339 0 22 -6 36 -16 40 -24 9 -34 7 -39 -6z"/>
<path d="M941 3821 c-9 -6 -12 -19 -8 -36 6 -35 24 -18 -365 -338 -169 -139
-307 -259 -307 -267 -1 -42 1 -42 325 -31 170 6 369 11 442 11 132 0 132 0
144 -25 9 -19 16 -24 32 -19 12 3 24 9 27 13 6 5 -54 178 -65 188 -2 2 -15 -1
-29 -6 -24 -9 -26 -13 -16 -37 6 -18 6 -31 0 -37 -10 -10 -422 -30 -522 -25
l-60 3 216 175 c118 96 224 176 235 178 11 2 23 -6 31 -20 6 -13 13 -24 14
-26 1 -1 14 2 28 7 l25 10 -53 143 c-51 139 -64 158 -94 139z"/>
<path d="M8042 3139 l-52 -91 183 -211 c100 -117 188 -219 194 -228 10 -12
-38 -6 -240 33 -138 27 -271 51 -293 54 l-42 6 -57 -101 c-55 -97 -57 -103
-39 -116 25 -19 30 -18 46 3 32 45 5 55 363 -150 326 -187 312 -176 298 -221
-10 -32 -9 -36 15 -46 13 -7 26 -10 27 -9 1 2 25 43 54 93 l51 90 -25 13 c-21
11 -27 10 -45 -8 -15 -15 -25 -18 -44 -10 -25 9 -536 299 -536 304 0 1 89 -15
198 -36 108 -21 252 -49 320 -62 l124 -23 10 22 c9 21 -9 46 -185 256 -107
129 -194 235 -192 237 3 4 447 -251 487 -279 24 -18 28 -25 23 -53 -6 -27 -3
-34 17 -43 23 -10 27 -6 92 110 65 113 68 121 51 134 -25 17 -29 17 -50 -7
-10 -11 -27 -20 -38 -20 -26 0 -618 340 -625 359 -3 8 0 27 6 43 9 24 8 30 -8
38 -10 6 -23 10 -27 10 -5 0 -32 -41 -61 -91z"/>
<path d="M1158 3028 l-78 -50 17 -29 c20 -34 28 -35 68 -9 52 34 70 27 119
-47 25 -37 44 -68 43 -69 -24 -18 -596 -389 -613 -396 -21 -10 -28 -8 -54 17
-29 28 -55 29 -66 2 -5 -14 160 -277 174 -277 4 0 15 7 25 14 15 12 16 17 3
48 -17 39 -15 43 39 84 61 46 563 374 573 374 10 0 74 -93 85 -123 7 -19 -27
-62 -67 -84 -19 -10 -19 -11 3 -42 l22 -31 75 51 c44 30 74 56 71 63 -6 14
-345 537 -356 547 -3 4 -41 -16 -83 -43z"/>
<path d="M15743 2748 c-37 -41 -233 -294 -233 -302 0 -3 10 -6 23 -6 14 0 79
44 167 113 159 123 179 151 146 202 -24 36 -64 33 -103 -7z"/>
<path d="M14980 2740 c-36 -16 -86 -35 -112 -41 -40 -11 -48 -17 -48 -36 0
-20 5 -23 40 -23 29 0 42 -5 50 -19 6 -13 10 -215 10 -588 0 -635 4 -603 -70
-623 -29 -8 -40 -16 -40 -30 0 -19 8 -20 180 -20 174 0 180 1 180 20 0 15 -9
22 -30 27 -17 3 -39 17 -50 31 -19 24 -20 43 -20 678 0 517 -3 654 -12 653 -7
0 -42 -13 -78 -29z"/>
<path d="M17009 2741 c-61 -62 -24 -191 55 -191 87 0 122 142 49 200 -36 28
-69 25 -104 -9z"/>
<path d="M19800 2749 c-25 -12 -76 -31 -115 -44 -77 -26 -101 -55 -45 -55 20
0 40 -9 55 -25 25 -24 25 -26 25 -209 l0 -185 -50 34 c-83 56 -179 59 -273 7
-132 -72 -207 -242 -207 -471 0 -181 35 -293 117 -375 54 -54 105 -76 183 -76
77 0 129 21 189 75 l41 37 0 -61 0 -61 38 16 c20 9 72 31 114 48 55 22 78 36
78 49 0 11 -8 17 -23 17 -13 0 -32 6 -43 14 -18 14 -19 34 -22 650 -1 350 -6
636 -10 635 -4 0 -27 -9 -52 -20z m-166 -532 c18 -15 46 -50 60 -79 l26 -52 0
-277 0 -277 -30 -25 c-66 -56 -162 -61 -225 -12 -45 34 -78 86 -106 167 -27
80 -38 282 -19 366 23 103 77 185 140 211 42 18 115 7 154 -22z"/>
<path d="M23300 2730 c-52 -22 -103 -40 -112 -40 -12 0 -18 -8 -18 -25 0 -22
4 -25 40 -25 29 0 42 -5 50 -19 16 -31 13 -1139 -3 -1171 -8 -16 -28 -30 -55
-38 -30 -10 -42 -19 -42 -33 0 -18 10 -19 180 -19 172 0 180 1 180 20 0 14
-11 22 -40 30 -23 6 -45 20 -52 33 -10 17 -14 171 -16 675 -2 358 -6 652 -10
651 -4 0 -50 -18 -102 -39z"/>
<path d="M25908 2755 c-14 -8 -66 -28 -115 -44 -96 -33 -116 -54 -60 -65 19
-4 43 -16 53 -27 18 -20 19 -49 22 -593 l3 -572 52 -32 c91 -55 126 -66 212
-66 71 -1 88 3 147 32 150 74 241 238 255 462 10 151 -26 283 -102 376 -46 56
-106 84 -178 84 -71 0 -115 -18 -189 -76 l-58 -45 0 290 c0 160 -3 291 -7 291
-5 -1 -20 -7 -35 -15z m289 -585 c99 -60 152 -235 133 -440 -15 -161 -60 -257
-140 -298 -80 -41 -186 -13 -222 58 -16 31 -18 68 -18 315 0 314 3 331 71 367
46 25 134 24 176 -2z"/>
<path d="M26731 2754 c-55 -39 -62 -130 -14 -179 80 -79 183 39 128 145 -26
50 -71 63 -114 34z"/>
<path d="M21691 2735 c-282 -64 -461 -337 -461 -705 0 -379 186 -646 479 -691
209 -32 382 51 517 247 32 46 34 55 24 75 l-13 23 -20 -30 c-11 -16 -54 -63
-96 -105 -100 -99 -155 -123 -291 -124 -84 0 -101 3 -146 27 -105 55 -202 198
-241 353 -25 101 -25 371 0 478 42 176 148 319 272 366 78 30 188 26 258 -8
92 -45 182 -169 217 -298 8 -33 16 -43 31 -43 18 0 20 5 15 38 -3 20 -11 119
-17 220 -10 144 -15 182 -26 182 -8 0 -19 -13 -24 -30 -6 -16 -19 -32 -30 -35
-11 -4 -65 9 -123 30 -125 43 -228 52 -325 30z"/>
<path d="M10860 2568 c0 -84 -3 -163 -6 -175 -5 -18 -2 -23 13 -23 17 0 21 9
26 65 9 98 37 152 89 175 51 22 152 35 202 26 l36 -7 -1 -557 c0 -404 -3 -567
-12 -592 -14 -40 -63 -70 -114 -70 -29 0 -33 -3 -33 -25 l0 -25 253 2 c241 3
252 4 252 22 0 16 -11 22 -58 31 -68 14 -85 28 -97 81 -5 21 -10 283 -10 581
l0 542 21 12 c15 7 46 9 93 5 99 -10 139 -22 165 -50 25 -26 51 -117 51 -178
0 -32 3 -38 21 -38 21 0 22 3 16 83 -4 45 -7 124 -7 175 l0 92 -450 0 -450 0
0 -152z"/>
<path d="M1568 2444 c-15 -15 -15 -19 -1 -41 20 -30 34 1 -209 -451 -107 -200
-187 -359 -184 -368 3 -8 12 -17 20 -20 8 -3 174 65 368 152 194 87 375 166
402 176 48 19 49 19 71 -2 l21 -20 21 22 21 23 -68 74 c-68 74 -69 75 -90 56
-18 -17 -19 -20 -5 -41 23 -35 19 -41 -37 -70 -85 -43 -471 -215 -474 -211 -7
7 262 490 278 500 13 9 22 7 38 -8 20 -18 21 -18 42 3 l21 21 -102 110 c-57
61 -106 111 -110 111 -4 0 -14 -7 -23 -16z"/>
<path d="M12723 2310 c-137 -28 -242 -145 -290 -322 -24 -88 -23 -282 1 -363
37 -123 102 -217 180 -258 30 -16 59 -21 111 -22 84 0 140 28 204 102 48 56
127 206 117 222 -12 19 -21 12 -64 -54 -126 -190 -332 -149 -408 81 -29 89
-27 306 3 388 39 104 91 155 166 163 55 6 92 -22 107 -80 32 -130 42 -147 91
-147 19 0 40 10 56 26 22 22 25 32 21 79 -6 74 -42 126 -110 158 -62 30 -126
39 -185 27z"/>
<path d="M17613 2310 c-133 -27 -252 -167 -289 -339 -18 -85 -18 -238 1 -324
28 -134 120 -260 212 -291 126 -43 238 9 332 154 48 74 75 136 68 154 -10 26
-20 19 -52 -35 -59 -101 -148 -150 -237 -130 -80 18 -145 92 -180 204 -29 94
-31 263 -4 352 44 150 145 227 236 180 29 -15 40 -39 60 -130 14 -62 34 -85
75 -85 49 0 79 38 77 99 -1 57 -18 94 -59 133 -53 51 -155 75 -240 58z"/>
<path d="M11907 2296 c-125 -46 -206 -156 -241 -329 -32 -155 -15 -330 44
-446 55 -109 131 -167 233 -178 140 -14 261 81 347 272 26 58 29 71 17 82 -11
12 -19 5 -51 -46 -42 -69 -103 -125 -154 -142 -19 -6 -58 -9 -88 -7 -132 11
-221 143 -239 356 l-8 82 258 0 258 0 -6 59 c-13 121 -73 230 -154 278 -55 32
-157 41 -216 19z m152 -94 c55 -58 83 -181 45 -196 -9 -3 -85 -6 -170 -6
l-154 0 0 23 c0 46 31 128 62 163 39 45 58 53 127 53 50 1 57 -2 90 -37z"/>
<path d="M13280 2283 c-30 -14 -84 -36 -120 -49 -47 -17 -65 -28 -65 -41 0
-14 9 -19 42 -21 23 -2 47 -10 55 -19 10 -13 13 -87 13 -349 0 -322 -1 -333
-21 -361 -12 -15 -35 -30 -53 -34 -39 -8 -45 -14 -37 -34 5 -13 30 -15 183
-13 158 3 178 5 181 20 2 12 -6 19 -32 23 -72 14 -71 9 -74 370 l-3 323 43 36
c108 93 220 64 247 -64 17 -80 15 -572 -3 -614 -14 -33 -20 -37 -79 -50 -20
-5 -27 -12 -25 -24 3 -15 22 -17 181 -20 l178 -2 -3 22 c-2 16 -11 24 -29 26
-15 2 -35 12 -45 24 -17 18 -19 48 -25 357 -5 272 -9 346 -22 387 -23 69 -48
99 -102 120 -83 31 -175 2 -266 -83 l-49 -46 0 72 c0 39 -3 71 -7 70 -5 0 -33
-12 -63 -26z"/>
<path d="M14238 2295 c-95 -35 -186 -131 -227 -239 -28 -76 -44 -200 -37 -287
16 -189 98 -334 225 -396 49 -24 67 -28 146 -28 77 1 98 5 146 28 143 69 229
247 229 469 -1 169 -50 299 -146 387 -30 28 -74 56 -100 65 -58 20 -184 20
-236 1z m139 -46 c70 -26 129 -115 165 -247 29 -108 31 -349 4 -439 -59 -198
-258 -217 -351 -33 -76 150 -93 437 -35 593 40 106 131 159 217 126z"/>
<path d="M15513 2290 c-154 -62 -253 -243 -253 -464 1 -218 80 -379 225 -454
43 -22 63 -26 140 -27 77 0 98 4 147 27 150 70 231 232 231 463 0 217 -69 366
-205 440 -45 25 -66 30 -143 32 -72 3 -100 -1 -142 -17z m197 -68 c48 -38 107
-157 125 -255 20 -105 20 -315 0 -392 -29 -110 -77 -159 -167 -171 -91 -11
-172 63 -217 198 -63 190 -49 479 29 588 52 73 159 88 230 32z"/>
<path d="M16367 2296 c-133 -36 -216 -187 -204 -371 6 -94 30 -155 80 -209
l36 -38 -48 -63 c-79 -103 -90 -178 -35 -236 l26 -27 -42 -54 c-59 -73 -80
-122 -80 -188 0 -129 92 -193 274 -192 224 2 392 121 426 304 22 114 -28 213
-118 237 -23 7 -116 18 -207 25 -100 8 -170 18 -180 26 -21 18 -19 77 6 116
18 29 24 33 47 27 41 -12 122 -8 166 7 52 17 122 82 152 141 44 89 51 228 15
322 l-11 27 65 0 65 0 0 45 0 45 -95 0 c-83 0 -98 3 -130 24 -31 22 -115 47
-148 45 -7 0 -34 -6 -60 -13z m112 -74 c75 -74 115 -355 66 -452 -32 -61 -96
-81 -150 -46 -75 49 -120 297 -79 435 25 87 108 119 163 63z m10 -902 c178
-15 241 -44 241 -113 0 -64 -75 -144 -162 -173 -73 -24 -227 -16 -286 14 -87
46 -109 146 -52 235 l30 47 57 0 c32 0 109 -5 172 -10z"/>
<path d="M17070 2289 c-25 -12 -76 -31 -115 -44 -52 -18 -70 -29 -70 -42 0
-14 9 -19 37 -21 64 -5 63 1 63 -373 0 -327 -1 -338 -21 -366 -12 -15 -35 -30
-53 -34 -39 -8 -45 -14 -37 -34 5 -13 30 -15 183 -13 159 3 178 5 181 20 2 12
-5 19 -25 23 -85 18 -83 7 -83 488 0 229 -3 417 -7 416 -5 0 -28 -9 -53 -20z"/>
<path d="M18251 2300 c-154 -32 -251 -190 -169 -277 28 -30 63 -29 93 2 22 21
25 33 25 95 0 65 3 74 28 99 34 35 87 45 138 29 57 -19 74 -60 77 -188 l2
-102 -80 -37 c-197 -90 -269 -144 -311 -235 -42 -91 -29 -222 29 -284 75 -80
216 -66 325 32 l39 36 17 -44 c24 -64 46 -80 100 -74 49 6 88 32 125 84 32 44
18 63 -27 37 -38 -22 -64 -10 -73 33 -4 16 -7 155 -8 310 -1 304 -7 345 -55
408 -48 64 -170 97 -275 76z m199 -572 c0 -158 -2 -174 -21 -202 -33 -48 -68
-69 -123 -74 -42 -3 -56 0 -80 19 -38 30 -56 76 -56 145 0 71 20 113 80 167
42 38 171 116 193 117 4 0 7 -77 7 -172z"/>
<path d="M20297 2296 c-113 -42 -197 -151 -234 -303 -20 -85 -23 -277 -4 -353
30 -124 102 -229 186 -273 30 -16 58 -22 115 -22 93 0 152 27 216 98 41 46
134 214 134 242 0 33 -28 17 -61 -34 -67 -104 -133 -151 -214 -151 -151 0
-265 161 -265 372 l0 68 251 0 252 0 -6 63 c-10 124 -74 235 -161 279 -52 27
-156 34 -209 14z m144 -83 c17 -15 40 -45 50 -68 24 -51 25 -130 3 -139 -9 -3
-85 -6 -171 -6 l-155 0 7 43 c10 65 55 149 94 175 51 33 129 31 172 -5z"/>
<path d="M22572 2289 c-72 -28 -154 -109 -192 -192 -46 -96 -63 -193 -57 -313
9 -156 54 -269 144 -356 142 -138 392 -107 509 65 115 167 124 473 20 650 -35
61 -117 132 -173 151 -66 23 -185 20 -251 -5z m161 -43 c70 -29 134 -134 161
-261 50 -248 15 -488 -83 -552 -130 -87 -253 2 -313 225 -25 96 -30 317 -9
402 39 157 137 231 244 186z"/>
<path d="M23890 2301 c-128 -42 -229 -161 -265 -313 -19 -82 -19 -257 0 -332
35 -132 112 -239 210 -286 42 -21 65 -25 140 -25 114 0 173 24 244 99 94 100
131 210 131 391 0 221 -67 366 -201 440 -47 25 -66 30 -144 32 -49 1 -101 -1
-115 -6z m137 -60 c106 -48 172 -232 173 -478 0 -229 -54 -339 -177 -359 -102
-16 -192 75 -238 241 -25 93 -32 315 -11 407 22 98 63 163 119 188 53 24 81
25 134 1z"/>
<path d="M24635 2283 c-27 -15 -81 -36 -120 -49 -53 -17 -70 -27 -70 -41 0
-14 9 -19 37 -21 68 -6 68 -6 68 -374 0 -229 -4 -335 -12 -353 -8 -18 -24 -29
-55 -37 -32 -8 -43 -15 -41 -27 3 -14 25 -16 183 -16 158 0 180 2 183 16 2 12
-9 19 -42 28 -26 6 -50 19 -56 30 -6 12 -10 137 -10 333 l0 314 28 26 c74 70
154 88 207 46 52 -41 55 -62 55 -385 0 -164 -3 -308 -6 -320 -6 -21 -32 -35
-87 -48 -20 -4 -27 -11 -25 -23 3 -15 23 -17 186 -20 176 -2 182 -2 182 18 0
13 -9 22 -27 26 -16 3 -36 8 -45 11 -31 8 -38 71 -38 374 l0 295 28 26 c93 88
203 90 249 5 16 -29 18 -65 18 -348 0 -298 -1 -318 -19 -338 -11 -12 -29 -21
-42 -21 -36 0 -54 -11 -54 -31 0 -19 8 -19 182 -17 163 3 183 5 186 20 2 12
-5 19 -25 24 -57 12 -64 16 -74 41 -5 13 -9 153 -9 311 0 316 -7 393 -42 461
-28 53 -66 78 -130 87 -59 8 -129 -23 -213 -95 -32 -28 -62 -51 -65 -51 -3 1
-14 19 -25 42 -11 23 -37 56 -58 72 -33 26 -47 31 -95 31 -67 0 -129 -32 -199
-101 l-43 -43 0 74 c0 41 -3 75 -7 75 -5 -1 -30 -13 -58 -27z"/>
<path d="M26745 2275 c-44 -19 -97 -37 -117 -40 -32 -6 -38 -11 -38 -31 0 -21
4 -24 40 -24 29 0 42 -5 50 -20 7 -14 10 -133 8 -365 -3 -381 -1 -370 -69
-384 -25 -5 -35 -13 -37 -29 l-3 -22 180 0 c173 0 181 1 181 20 0 14 -10 22
-38 30 -26 6 -43 18 -50 35 -9 19 -12 148 -12 445 0 231 -3 420 -7 420 -5 -1
-44 -16 -88 -35z"/>
<path d="M27273 2300 c-95 -20 -186 -95 -199 -166 -15 -82 28 -146 89 -130 38
9 57 52 54 124 -2 52 1 64 22 86 45 48 136 56 180 15 29 -27 41 -81 41 -184
l0 -91 -91 -38 c-118 -50 -230 -124 -269 -177 -67 -93 -76 -221 -22 -308 69
-111 217 -109 349 4 l41 35 7 -30 c4 -17 18 -44 32 -60 46 -56 127 -34 196 53
22 27 28 40 20 48 -8 8 -18 7 -34 -5 -26 -18 -47 -20 -69 -6 -13 8 -16 60 -20
332 -5 306 -6 326 -27 370 -25 55 -63 94 -110 113 -44 19 -138 26 -190 15z
m169 -780 c-34 -45 -81 -70 -132 -70 -40 0 -52 5 -78 31 -36 37 -57 112 -47
167 16 87 71 146 200 214 l70 37 3 -177 c2 -159 1 -179 -16 -202z"/>
<path d="M7463 2249 c-7 -7 -13 -19 -13 -26 0 -7 68 -141 150 -299 253 -481
253 -480 236 -512 -13 -25 -12 -28 9 -44 22 -17 23 -16 84 55 61 71 61 71 41
91 -19 19 -20 19 -39 2 -11 -10 -27 -16 -34 -13 -8 3 -34 43 -58 90 l-43 85
94 110 c52 61 98 111 102 111 3 1 45 -15 92 -35 90 -38 100 -51 72 -90 -13
-17 -12 -21 1 -36 9 -10 19 -18 23 -18 4 0 51 50 104 110 l97 111 -23 18 c-21
18 -25 18 -40 4 -11 -10 -28 -14 -46 -10 -15 3 -194 72 -398 152 -203 81 -376
149 -384 152 -8 2 -21 -2 -27 -8z m323 -268 l143 -56 -81 -93 c-45 -51 -84
-89 -88 -85 -4 4 -42 75 -85 157 -66 127 -74 147 -55 141 12 -4 87 -33 166
-64z"/>
<path d="M7263 1946 c-122 -45 -215 -123 -256 -215 -16 -35 -21 -65 -20 -126
1 -94 24 -166 84 -267 175 -295 435 -339 654 -110 56 58 61 72 37 111 l-19 32
-43 -58 c-121 -166 -263 -175 -402 -24 -128 138 -212 337 -189 443 19 82 89
138 173 138 42 0 49 -4 80 -40 l33 -40 27 18 27 18 -42 72 c-48 82 -51 83
-144 48z"/>
<path d="M2122 1878 c-16 -16 -15 -28 4 -49 10 -11 14 -27 11 -41 -6 -22 -363
-467 -428 -533 -27 -27 -31 -29 -61 -17 -29 10 -35 10 -52 -7 -22 -22 -33 -10
123 -138 74 -60 77 -62 95 -44 17 18 17 20 1 44 -9 15 -13 32 -9 39 4 7 48 64
98 126 l90 112 22 -22 22 -23 -43 -195 c-24 -107 -44 -202 -45 -211 0 -9 36
-46 81 -83 76 -64 81 -67 94 -49 19 24 18 38 0 53 -8 7 -15 26 -15 42 0 26 42
297 55 353 4 17 13 20 62 21 73 1 123 26 185 91 117 126 115 223 -8 331 -90
78 -256 212 -263 212 -4 0 -12 -5 -19 -12z m202 -218 c47 -52 49 -105 7 -171
-74 -117 -211 -161 -276 -89 -20 23 -30 8 115 184 52 64 100 116 106 116 7 0
28 -18 48 -40z"/>
<path d="M6727 1585 c-65 -40 -121 -76 -124 -78 -2 -3 0 -15 6 -26 10 -17 18
-20 54 -15 41 6 42 5 74 -43 94 -146 343 -567 343 -581 0 -9 -9 -26 -21 -38
-17 -18 -19 -26 -9 -44 6 -12 17 -20 23 -18 7 2 67 36 134 77 115 70 121 75
111 97 -10 20 -16 23 -52 18 -29 -4 -45 -2 -53 7 -35 43 -363 597 -363 613 0
11 9 30 21 42 18 19 19 25 7 43 -7 12 -17 21 -23 20 -5 0 -63 -33 -128 -74z"/>
<path d="M2564 1483 c-6 -21 -2 -30 14 -41 29 -19 29 -13 -23 -497 -40 -376
-42 -411 -27 -423 9 -6 19 -12 23 -12 4 0 131 129 282 288 358 374 338 356
375 347 25 -5 33 -2 42 15 15 27 13 28 -89 76 -80 37 -84 38 -97 19 -19 -26
-18 -34 11 -47 46 -21 45 -22 -224 -306 -79 -83 -146 -150 -148 -148 -5 5 56
552 64 571 6 17 27 19 52 5 15 -7 20 -4 30 17 6 14 10 27 8 29 -5 5 -277 134
-282 134 -3 0 -8 -12 -11 -27z"/>
<path d="M6324 1332 c-222 -112 -231 -118 -221 -140 8 -18 17 -22 51 -20 l41
3 157 -315 c87 -173 158 -327 158 -342 0 -16 -8 -33 -21 -42 -16 -11 -20 -21
-15 -40 3 -14 11 -26 16 -26 6 0 73 31 150 70 138 69 139 70 128 95 -9 20 -16
24 -32 18 -63 -21 -66 -18 -149 145 l-78 152 77 37 77 37 22 -28 c19 -24 25
-26 44 -17 20 11 20 12 -21 96 -42 85 -50 93 -77 76 -12 -8 -13 -14 -3 -36 7
-15 10 -31 6 -36 -6 -10 -145 -82 -148 -77 -9 10 -156 322 -154 324 9 9 174
84 185 84 12 0 47 -47 56 -74 4 -12 67 12 67 25 0 21 -64 149 -74 148 -6 0
-115 -53 -242 -117z"/>
<path d="M5900 1149 c-74 -27 -136 -51 -138 -53 -1 -2 0 -15 3 -29 6 -22 11
-24 44 -20 35 5 39 3 54 -28 21 -46 223 -610 232 -647 5 -25 1 -34 -23 -53
-25 -20 -28 -28 -21 -46 4 -13 12 -23 17 -23 24 0 277 100 276 109 -1 6 -2 18
-2 26 -2 11 -14 15 -42 15 -33 0 -42 4 -54 27 -16 33 -221 604 -232 647 -6 25
-3 33 21 52 22 17 26 27 21 48 -3 14 -10 26 -14 25 -4 0 -68 -23 -142 -50z"/>
<path d="M3257 1135 c-3 -21 1 -29 24 -41 19 -10 29 -22 29 -38 0 -26 -164
-622 -185 -673 -11 -27 -19 -32 -52 -35 -33 -3 -38 -7 -41 -29 -3 -25 1 -27
90 -52 114 -33 114 -33 122 -4 4 16 -1 27 -19 40 -14 10 -25 26 -25 35 0 25
163 603 168 597 3 -2 13 -147 22 -321 18 -321 20 -333 57 -334 7 0 94 113 194
251 100 137 183 249 184 247 7 -6 -152 -558 -165 -573 -7 -8 -25 -15 -40 -15
-22 0 -29 -5 -33 -26 -2 -14 0 -27 7 -30 25 -9 260 -73 262 -71 1 1 5 13 8 27
6 21 1 28 -25 43 -29 16 -31 20 -24 55 14 75 177 648 191 670 10 16 24 22 48
22 26 0 35 5 39 22 4 12 4 24 2 26 -7 8 -199 61 -205 57 -3 -2 -82 -112 -175
-245 -92 -132 -171 -238 -174 -234 -3 3 -13 136 -22 295 -10 160 -19 293 -22
296 -7 6 -207 63 -223 63 -7 0 -14 -11 -17 -25z"/>
<path d="M5306 974 c-104 -24 -190 -45 -193 -47 -8 -8 17 -58 27 -52 23 14 57
-7 68 -43 19 -64 142 -642 142 -667 0 -17 -9 -29 -30 -40 -31 -16 -36 -30 -21
-54 8 -12 41 -7 208 29 109 23 217 51 240 62 59 28 126 103 153 174 20 49 24
78 24 169 0 233 -84 413 -226 484 -86 43 -151 41 -392 -15z m304 -68 c46 -30
78 -77 108 -157 48 -129 68 -323 43 -416 -21 -76 -86 -131 -173 -147 -46 -8
-72 4 -86 41 -10 24 -152 665 -152 685 0 13 86 27 152 24 53 -3 77 -9 108 -30z"/>
<path d="M4619 913 c-24 -4 -45 -43 -225 -415 -110 -226 -207 -422 -217 -435
-10 -13 -25 -23 -33 -23 -8 0 -14 -9 -14 -20 0 -19 7 -20 99 -20 55 0 102 4
106 9 9 16 -25 41 -56 41 -19 0 -29 5 -29 15 0 8 23 59 51 115 l51 100 138 0
138 0 7 -75 c12 -128 0 -154 -72 -155 -17 0 -23 -6 -23 -21 0 -21 1 -21 294
-18 162 2 297 6 300 9 2 3 2 40 -1 83 -6 76 -6 77 -33 77 -25 0 -28 -4 -34
-44 -5 -30 -13 -47 -24 -50 -16 -4 -177 -10 -214 -7 -26 2 -36 52 -43 213 l-6
148 94 0 c100 0 107 -3 107 -51 0 -12 7 -19 20 -19 20 0 21 5 18 103 -3 94 -4
102 -23 102 -15 0 -21 -8 -23 -30 -2 -16 -9 -33 -15 -37 -7 -4 -49 -8 -94 -8
l-81 0 -6 73 c-3 39 -7 120 -9 180 l-4 107 118 0 118 0 6 -37 c4 -21 7 -45 8
-53 2 -10 13 -15 32 -15 25 0 30 4 29 23 0 12 -1 49 -2 82 l-2 60 -212 -1
c-117 -1 -225 -4 -239 -6z m5 -400 l6 -161 -73 -7 c-39 -4 -95 -5 -124 -3
l-52 3 112 233 112 232 6 -67 c4 -38 10 -141 13 -230z"/>
</g>
</svg>
